<svg xmlns="http://www.w3.org/2000/svg" viewBox="0 0 96 96" role="img" aria-labelledby="title">
  <title id="title">Amethyst Deceiver</title>
  <path fill="#ddd8e3" stroke="#292d29" stroke-width="4" d="M39 47c2 13 0 25-6 37h30c-6-12-8-24-6-37z"/>
  <path fill="#7651a8" stroke="#292d29" stroke-width="4" d="M14 51c5-24 19-37 34-37s29 13 34 37c-19 8-49 8-68 0z"/>
  <path fill="none" stroke="#c8b5ee" stroke-width="3" d="M25 48c15-8 31-8 46 0M48 15v34"/>
  <path fill="#799c9c" d="m15 18 2 5 5 2-5 2-2 5-2-5-5-2 5-2z"/>
</svg>
